<?xml version="1.0" encoding="UTF-8" standalone="no"?>
<svg
   xmlns:dc="http://purl.org/dc/elements/1.1/"
   xmlns:cc="http://creativecommons.org/ns#"
   xmlns:rdf="http://www.w3.org/1999/02/22-rdf-syntax-ns#"
   xmlns:svg="http://www.w3.org/2000/svg"
   xmlns="http://www.w3.org/2000/svg"
   version="1.1"
   id="svg2"
   viewBox="0 0 744.09448819 1052.3622047"
   height="297mm"
   width="210mm">
  <defs
     id="defs4" />
  <metadata
     id="metadata7">
    <rdf:RDF>
      <cc:Work
         rdf:about="">
        <dc:format>image/svg+xml</dc:format>
        <dc:type
           rdf:resource="http://purl.org/dc/dcmitype/StillImage" />
        <dc:title></dc:title>
      </cc:Work>
    </rdf:RDF>
  </metadata>
  <g
     id="layer1">
    <path
       id="path4144"
       d="m 337.54533,432.28346 46.02891,-26.5748 46.02891,26.5748 L 398.91721,450 383.57424,441.14173 368.23127,450 Z"
       style="fill:#d8d8ff;fill-rule:evenodd;stroke:none;stroke-width:1px;stroke-linecap:butt;stroke-linejoin:miter;stroke-opacity:1;fill-opacity:1" />
    <path
       id="path4154"
       d="M 337.54533,432.28346 368.23127,450 383.57424,441.14173 398.91721,450 l 30.68594,-17.71654 0,53.14961 -46.02891,26.5748 -46.02891,-26.5748 z"
       style="fill:#a6a6f7;fill-rule:evenodd;stroke:none;stroke-width:1px;stroke-linecap:butt;stroke-linejoin:miter;stroke-opacity:1;fill-opacity:1" />
    <path
       id="path4146"
       d="m 337.54533,432.28346 0,53.14961 46.02891,26.5748 0,-17.71653 L 368.23127,450 Z"
       style="fill:#8888db;fill-rule:evenodd;stroke:none;stroke-width:1px;stroke-linecap:butt;stroke-linejoin:miter;stroke-opacity:1;fill-opacity:1" />
    <path
       id="path4148"
       d="m 383.57424,512.00787 46.02891,-26.5748 0,-53.14961 L 398.91721,450 383.57424,494.29134 Z"
       style="fill:#6161dd;fill-rule:evenodd;stroke:none;stroke-width:1px;stroke-linecap:butt;stroke-linejoin:miter;stroke-opacity:1;fill-opacity:1" />
    <path
       id="path4150"
       d="m 368.23127,450 15.34297,-8.85827 0,53.14961 z"
       style="fill:#6868f2;fill-rule:evenodd;stroke:none;stroke-width:1px;stroke-linecap:butt;stroke-linejoin:miter;stroke-opacity:1;fill-opacity:1" />
    <path
       id="path4152"
       d="m 398.91721,450 -15.34297,-8.85827 0,53.14961 z"
       style="fill:#a6a6f7;fill-rule:evenodd;stroke:none;stroke-width:1px;stroke-linecap:butt;stroke-linejoin:miter;stroke-opacity:1;fill-opacity:1" />
  </g>
</svg>
